<svg width="475" height="328" viewBox="0 0 475 328" fill="none" xmlns="http://www.w3.org/2000/svg">
<path d="M34.3564 204.374L237.501 295.508L446.829 201.679L237.501 112.087L34.3564 204.374Z" fill="#686868"/>
<path d="M237.5 83.7646L475 189.052V211.428L237.5 112.087L0 219.982V188.962L237.5 83.7646Z" fill="#868686"/>
<path d="M474.426 189.182L237.5 107.895L244.664 131.721L474.426 211.229L474.426 189.182Z" fill="#DADADA"/>
<path d="M0 0L7.16441 23.8268L219.472 120.277L237.5 107.895L0 0Z" fill="#DADADA"/>
<path d="M475 189.052L237.5 83.7645L0 0L237.5 107.895L475 189.052Z" fill="white"/>
<path d="M0 220.619L237.5 327.876L475 219.982V189.052L237.5 295.508L0 189.599V220.619Z" fill="white"/>
</svg>
