<svg width="321" height="168" viewBox="0 0 321 168" fill="none" xmlns="http://www.w3.org/2000/svg">
<path d="M8.91111 102.533C10.5176 99.8218 12.8631 97.877 15.5861 96.5C15.2858 88.9157 19.4336 78.1469 28.5 74.1387C25 66.9794 32.4111 57.5327 43.4111 55.0327C42.4337 47.5262 53.3982 36.0643 66.5 35.5506C66.9676 30.359 76.7043 22.6157 87.501 23.6815C87.6078 23.543 96.4866 12.0954 108.911 16.5327C112.411 13.3654 117 7.50004 128.911 8.03271C128.911 8.03271 145.858 -2.79434 156.913 4.78424C157.097 4.70291 169.703 -0.841079 179.911 6.36377C189.586 0.530169 199.685 4.31664 205.906 10.0326C214.911 6.36377 221.911 7.53258 227.411 16.5326C232.391 13.3321 240.806 15.9848 246.415 23.3437C257.851 21.8112 264.981 30.1904 267.5 37.651C276.309 37.651 282.382 45.0021 284.7 52.2388C295.609 52.2388 299.734 60.5578 301 67.6576C309 71.0326 311.411 75.0326 311.411 85.5326C311.411 87.1278 310.882 88.6308 309.986 90.0326C321.911 93.5326 321.911 104.054 311.411 111.554C300.911 119.054 290.908 111.554 290.908 111.554C277.655 136.394 35.0928 173.952 29.4093 154.534C29.4093 154.534 22.3448 168.533 9.91111 165.033C-1.13021 161.925 2.41898 151.208 4.6583 146.5C-0.340864 143 2.45666 130.832 4.41187 127.533C5.78057 125.223 7.52532 123.426 9.47739 122.033C3.41112 117.033 6.9559 105.832 8.91111 102.533Z" fill="black"/>
<path d="M29.4093 154.534C29.4093 154.534 25.568 125.087 43.2377 94.5327M29.4093 154.534C29.4093 154.534 22.3448 168.533 9.91111 165.033C-2.52262 161.533 3.54618 148.384 5.41111 145.033C10.976 135.033 29.4093 136.533 29.4093 136.533M29.4093 154.534C35.0928 173.952 277.655 136.394 290.908 111.554M56.9112 75.9806C51.3201 82.0513 46.8335 88.3149 43.2377 94.5327M56.9112 75.9806C61.3412 71.1705 66.4645 66.4817 72.3874 62.0327M56.9112 75.9806C56.9112 75.9806 43.5 70.5 32 73C20.5 75.5 15.2496 88 15.5861 96.5M43.2377 94.5327C43.2377 94.5327 16.9111 89.0327 8.91111 102.533C6.9559 105.832 3.41112 117.033 9.47739 122.033M33.2589 118.033C33.2589 118.033 12.4119 114.033 4.41187 127.533C2.45666 130.832 -0.340864 143 4.6583 146.5M72.3874 62.0327C72.3874 62.0327 54.4111 52.5327 43.4111 55.0327M72.3874 62.0327C77.546 58.1579 83.3111 54.465 89.7531 51.0327M43.4111 55.0327C42.4111 47.3528 53.9111 35.5327 67.4111 35.5327C80.9111 35.5327 89.7531 51.0327 89.7531 51.0327M43.4111 55.0327C32.4111 57.5327 25 66.9794 28.5 74.1387M89.7531 51.0327C95.2908 48.0822 101.329 45.3241 107.911 42.8085M107.911 42.8085C107.911 42.8085 101.411 26.5327 89.7531 24.0327C78.0951 21.5327 67 30 66.5 35.5506M107.911 42.8085C113.798 40.5586 120.121 38.5026 126.911 36.6761M126.911 36.6761C129.031 36.1059 131.196 35.558 133.408 35.0336C139.264 33.6453 144.931 32.5819 150.411 31.8142M126.911 36.6761C126.911 36.6761 121.411 20.997 108.911 16.5327M108.911 16.5327C96.4111 12.0684 87.5 23.6828 87.5 23.6828M108.911 16.5327C112.411 13.3654 117 7.50004 128.911 8.03271M150.411 31.8142C150.411 31.8142 140.822 8.56539 128.911 8.03271M150.411 31.8142C156.65 30.9404 162.647 30.4496 168.411 30.2987M128.911 8.03271C128.911 8.03271 146.911 -3.46729 157.911 5.53271C168.911 14.5327 168.411 30.2987 168.411 30.2987M168.411 30.2987C175.977 30.1007 183.139 30.4884 189.911 31.3641M189.911 31.3641C189.911 31.3641 191.911 16.5325 181.411 7.53258C170.911 -1.4673 156.911 4.78516 156.911 4.78516M189.911 31.3641C197.188 32.3051 204.016 33.8096 210.411 35.7565M210.411 35.7565C210.411 35.7565 213.411 18.0326 207.411 11.5326C201.411 5.03258 190.411 0.0325789 179.911 6.36377M210.411 35.7565C216.842 37.7142 222.836 40.1191 228.411 42.8483M228.411 42.8483C228.411 42.8483 232.911 25.5326 227.411 16.5326M228.411 42.8483C234.188 45.6761 239.514 48.8519 244.411 52.2388M227.411 16.5326C221.911 7.53258 214.911 6.36377 205.906 10.0326M227.411 16.5326C232.857 13.0326 242.411 16.5326 247.911 25.5326C253.411 34.5326 244.411 52.2388 244.411 52.2388M244.411 52.2388C250.16 56.2148 255.316 60.4817 259.911 64.8178M259.911 64.8178C259.911 64.8178 269.411 49.5326 268.411 41.5326C267.411 33.5326 259.911 21.5326 246.411 23.3443M259.911 64.8178C264.406 69.059 268.365 73.3664 271.818 77.5326M271.818 77.5326C271.818 77.5326 286.911 63.0326 285.411 55.0326C283.911 47.0326 277.451 37.651 267.5 37.651M271.818 77.5326C276.281 82.9179 279.898 88.0673 282.735 92.5326M282.735 92.5326C282.735 92.5326 301.911 78.5326 301.411 71.0326C300.911 63.5326 297.411 52.2388 284.7 52.2388M282.735 92.5326C285.266 96.5165 287.175 99.9559 288.509 102.533M288.509 102.533C290.136 105.674 290.908 107.534 290.908 107.534C291.673 108.826 291.646 110.17 290.908 111.554M288.509 102.533C288.509 102.533 311.411 96.0326 311.411 85.5326C311.411 75.0326 309 71.0326 301 67.6576M290.908 111.554C290.908 111.554 300.911 119.054 311.411 111.554C321.911 104.054 321.911 93.5326 309.986 90.0326" stroke="white" stroke-width="3"/>
</svg>
