<svg width="512" height="512" viewBox="0 0 512 512" fill="none" xmlns="http://www.w3.org/2000/svg">
<g clip-path="url(#clip0)">
<path fill-rule="evenodd" clip-rule="evenodd" d="M123.54 24.27C127.67 8.56998 142.71 -1.37002 158.87 0.14998C340.78 17.32 490.89 165.08 511.77 345.86C513.64 362.08 503.87 377.4 488.15 381.76L431.21 397.54C423.27 211.15 296.35 86.03 108.73 80.54L123.54 24.27ZM0.549897 491.64L100.4 112.15V112.19C276.47 114.15 395.28 231.4 399.55 406.29L20.5499 511.39C17.8024 512.15 14.9029 512.173 12.144 511.455C9.38505 510.737 6.8642 509.305 4.83574 507.301C2.80728 505.298 1.34296 502.796 0.59049 500.046C-0.161978 497.296 -0.17598 494.397 0.549897 491.64ZM158.211 275.736L182.378 226.609C186.745 217.741 199.292 217.853 203.622 226.609L227.789 275.736L281.859 283.639C291.556 285.049 295.442 297.034 288.41 303.899L249.291 342.117L258.543 396.104C260.209 405.863 249.957 413.135 241.371 408.608L193 383.117L144.629 408.608C136.043 413.172 125.791 405.863 127.457 396.104L136.709 342.117L97.5901 303.899C90.5583 297.034 94.4443 285.049 104.141 283.639L158.211 275.736Z" fill="black"/>
</g>
<defs>
<clipPath id="clip0">
<rect width="512" height="512" fill="white"/>
</clipPath>
</defs>
</svg>
