<?xml version="1.0" standalone="no"?>
<!DOCTYPE svg PUBLIC "-//W3C//DTD SVG 20010904//EN"
 "http://www.w3.org/TR/2001/REC-SVG-20010904/DTD/svg10.dtd">
<svg version="1.0" xmlns="http://www.w3.org/2000/svg"
 width="396.000000pt" height="396.000000pt" viewBox="0 0 396.000000 396.000000"
 preserveAspectRatio="xMidYMid meet">
<metadata>
Created by potrace 1.14, written by Peter Selinger 2001-2017
</metadata>
<g transform="translate(0.000000,396.000000) scale(0.100000,-0.100000)"
fill="#000000" stroke="none">
<path d="M2022 3951 c-4 -3 -8 -440 -7 -971 l0 -965 960 -1 c528 0 965 2 972
4 11 4 11 40 -2 191 -10 117 -13 138 -50 293 -60 254 -198 530 -373 743 -284
346 -678 584 -1107 670 -155 31 -372 51 -393 36z"/>
<path d="M1867 3854 c-1 -1 -42 -4 -92 -8 -200 -13 -434 -70 -595 -143 -251
-114 -422 -228 -590 -394 -108 -107 -134 -137 -209 -240 -34 -46 -65 -88 -69
-94 -4 -5 -29 -47 -55 -93 -166 -295 -251 -618 -251 -952 0 -88 11 -250 19
-272 2 -7 6 -31 9 -53 27 -197 119 -451 238 -653 74 -124 190 -273 298 -382
458 -458 1107 -653 1746 -525 67 14 135 30 150 36 16 6 36 12 44 14 42 9 196
72 283 116 540 270 939 805 1033 1384 3 22 8 47 9 55 3 16 14 141 19 225 2 27
2 54 0 60 -3 7 -318 10 -954 10 -629 0 -950 3 -951 10 -1 5 -3 431 -4 945 -1
514 -3 940 -4 946 -1 9 -64 16 -74 8z"/>
</g>
</svg>
