<svg width="497" height="403" viewBox="0 0 497 403" fill="none" xmlns="http://www.w3.org/2000/svg">
<path d="M446.042 100.052C446.042 104.905 446.042 108.788 446.042 113.641C446.042 248.561 344.124 402.893 156.79 402.893C98.5508 402.893 45.1653 386.392 0.515625 357.273C8.28079 358.243 16.046 359.214 24.7818 359.214C72.3434 359.214 116.022 342.713 150.966 315.535C106.316 314.564 68.4608 285.445 55.8424 244.678C62.637 245.649 68.4608 246.619 75.2554 246.619C83.9912 246.619 93.6976 244.678 101.463 242.737C54.8718 233.03 19.9285 192.263 19.9285 142.76V141.789C33.5176 149.555 50.0186 153.437 66.5195 154.408C38.3708 135.966 20.8992 104.905 20.8992 69.9617C20.8992 50.5488 25.7524 33.0772 34.4882 18.5175C84.9618 79.6681 160.672 120.435 245.118 125.289C243.177 117.523 242.206 109.758 242.206 101.993C242.206 45.6955 287.827 0.0751953 344.124 0.0751953C373.244 0.0751953 399.451 11.7229 418.864 32.1065C441.189 27.2533 463.514 18.5175 482.927 6.86972C475.161 31.1359 459.631 50.5488 438.277 63.1672C458.66 61.2259 479.044 55.402 496.516 47.6368C482.927 68.0204 465.455 85.492 446.042 100.052Z" fill="black"/>
</svg>
