<svg width="40" height="60" viewBox="0 0 40 60" fill="none" xmlns="http://www.w3.org/2000/svg">
<path d="M19.9998 60L2.67929 30H37.3203L19.9998 60Z" fill="#D93131"/>
<path fill-rule="evenodd" clip-rule="evenodd" d="M20 40C31.0457 40 40 31.0457 40 20C40 8.95431 31.0457 0 20 0C8.9543 0 0 8.95431 0 20C0 31.0457 8.9543 40 20 40ZM29.9998 20C29.9998 25.5228 25.5226 30 19.9998 30C14.477 30 9.9998 25.5228 9.9998 20C9.9998 14.4772 14.477 10 19.9998 10C25.5226 10 29.9998 14.4772 29.9998 20Z" fill="#D93131"/>
</svg>
